<?xml version="1.0" encoding="UTF-8"?>
<!-- Created with Inkscape (http://www.inkscape.org/) -->
<svg width="30" height="28" version="1.1" xmlns="http://www.w3.org/2000/svg">
 <path d="m15 1.8c-7.3 0-13 5.8-13 13 0 5.7 3.8 10 9.1 12 0.67 0.11 0.92-0.27 0.92-0.61v-2.4c-3.3 0.59-4.2-0.78-4.5-1.5-0.14-0.36-0.79-1.5-1.4-1.8-0.46-0.24-1.1-0.83 0-0.85 1 0 1.8 0.93 2 1.3 1.2 1.9 3.1 1.4 3.9 1 0.11-0.83 0.46-1.4 0.85-1.7-3-0.32-6-1.4-6-6.3 0-1.4 0.51-2.6 1.4-3.4-0.14-0.33-0.6-1.6 0.13-3.4 0 0 1.1-0.34 3.6 1.3 1.1-0.29 2.2-0.44 3.3-0.44 1.1 0 2.2 0.15 3.3 0.44 2.5-1.7 3.6-1.3 3.6-1.3 0.73 1.8 0.27 3.1 0.13 3.4 0.85 0.9 1.4 2 1.4 3.4 0 4.9-3.1 6-6 6.3 0.48 0.4 0.9 1.2 0.9 2.4v3.5c0 0.34 0.25 0.74 0.91 0.61a13 13 0 0 0 9-12c0-7.1-5.9-13-13-13z" 
fill="#5145ff" stroke-width=".2"/>
</svg>
