<?xml version="1.0" encoding="UTF-8"?>
<!-- Created with Inkscape (http://www.inkscape.org/) -->
<svg width="60" height="55" xmlns="http://www.w3.org/2000/svg">
 <path d="m28.95 1.129c-14.88 0-26.947 11.681-26.947 26.091 0 11.55 7.71 21.3 18.427 24.75 1.35 0.23 1.86-0.55 1.86-1.24v-4.85c-6.77 1.2-8.52-1.6-9.06-3.07-0.3-0.75-1.62-3.07-2.76-3.68-0.947-0.49-2.297-1.7 0-1.73 2.12 0 3.63 1.89 4.14 2.67 2.42 3.95 6.3 2.84 7.85 2.15 0.23-1.69 0.94-2.83 1.72-3.49-6-0.65-12.26-2.9-12.26-12.88 0-2.84 1.04-5.18 2.76-7.01-0.27-0.65-1.22-3.33 0.27-6.91 0 0 2.25-0.69 7.41 2.67 2.15-0.59 4.44-0.88 6.73-0.88s4.58 0.29 6.74 0.88c5.16-3.39 7.42-2.67 7.42-2.67 1.48 3.58 0.54 6.26 0.27 6.91 1.72 1.83 2.76 4.14 2.76 7.01 0 10.01-6.3 12.23-12.3 12.88 0.97 0.82 1.82 2.38 1.82 4.83v7.17c0 0.69 0.51 1.51 1.85 1.24a26.99 26.13 0 0 0 18.37-24.75c0-14.41-12.06-26.091-26.96-26.091z" fill="#5145ff" stroke-width=".4"/>
</svg>
